<svg id="图层_1" data-name="图层 1" xmlns="http://www.w3.org/2000/svg" viewBox="0 0 300 161.54"><defs><style>.cls-1{fill:#fff;}</style></defs><title>logo</title><path class="cls-1" d="M202.41,199.88c-.23-3.67-.46-8.66-.4-12.79h-.11c-.69,4.13-1.72,8.89-2.47,11.87L196,212.78h-5.27l-3.21-13.59c-.75-3.1-1.78-7.91-2.41-12.1H185c-.11,4.19-.4,9.06-.57,12.9l-.69,13.42h-6.42l2.75-38.65h8l3.1,14c1,4.87,2,9.17,2.7,13.53H194c.57-4.3,1.43-8.66,2.41-13.53l3.1-14h7.91l2.35,38.65H203.1Z" transform="translate(0 -69.23)"/><path class="cls-1" d="M222.6,174.77v25.11c0,5.68,1.66,7.4,3.67,7.4,2.18,0,3.73-1.55,3.73-7.4V174.77h7.51v23.8c0,9.92-3.78,15.31-11.18,15.31-8.08,0-11.24-5.56-11.24-15.25V174.77Z" transform="translate(0 -69.23)"/><path class="cls-1" d="M243.12,205.73a14.87,14.87,0,0,0,6.36,1.49c3.5,0,5.28-1.83,5.28-4.36,0-2.81-1.72-4.19-5-6.31-5.28-3.21-7.28-7.28-7.28-10.78,0-6.19,4.13-11.35,12.16-11.35a12.82,12.82,0,0,1,6.08,1.38l-1.2,6.48a9.15,9.15,0,0,0-4.87-1.32c-3.21,0-4.76,1.95-4.76,4,0,2.29,1.15,3.5,5.27,6,5.16,3.1,7,7,7,11.07,0,7.05-5.22,11.7-12.73,11.7a17.19,17.19,0,0,1-7.4-1.55Z" transform="translate(0 -69.23)"/><path class="cls-1" d="M274.09,174.77v38.65h-7.51V174.77Z" transform="translate(0 -69.23)"/><path class="cls-1" d="M299.32,212.84a15.09,15.09,0,0,1-5.79.92c-9.92,0-14.62-8.09-14.62-19.09,0-14.56,8.08-20.24,15.6-20.24a10.32,10.32,0,0,1,5.22,1l-1.26,6.31A7.56,7.56,0,0,0,295,181c-4.24,0-8.09,3.67-8.09,13.25,0,9.23,3.5,12.84,8.09,12.84a13.25,13.25,0,0,0,3.61-.57Z" transform="translate(0 -69.23)"/><path class="cls-1" d="M2.22,148c.5.46,1.23.23,1.84.11-.77-.08,1.65-.34,1.76-.34,1-.15,1.92-.23,2.88-.31s2.15-.27,3.22-.34,2.38-.19,3.57-.27,2.53-.12,3.8-.15c1.69-.08,3.41-.08,5.1-.12,1.42-.08,2.84-.08,4.3-.08H33c1.5,0,3,0,4.49,0s3,0,4.52.08,3.07.08,4.6.15,3,.19,4.41.31,2.68.31,4,.5c1.11.19,2.23.38,3.34.61.85.15,1.65.35,2.49.57a8.92,8.92,0,0,0,1.76.35c-.58,0,.54,0,.73,0a5.86,5.86,0,0,0,.81-.11,4.23,4.23,0,0,0,.65-.19,3.21,3.21,0,0,0,.46-.31,2.2,2.2,0,0,0,.58-.61,5.51,5.51,0,0,0,.61-.92c.23-.38.42-.77.65-1.15s.42-.8.65-1.19.46-.81.69-1.19a4.87,4.87,0,0,1,.81-1,2.55,2.55,0,0,1,2.68-.69,3.67,3.67,0,0,1,1.11.69A7.58,7.58,0,0,1,74,143.5a9.58,9.58,0,0,1,.81,1.34c.27.58.61,1.11.92,1.69s.61,1.34.88,2,.5,1.49.73,2.26a24,24,0,0,1,.69,2.38c.19.84.42,1.69.65,2.53s.35,1.72.54,2.61.34,1.76.54,2.64.23,1.69.27,2.53c0,.69,0,1.38,0,2a3.73,3.73,0,0,0,.27,1.11c.19.23,0-.08-.12-.15-1.84-.61-.88.42-.38-.69a9.58,9.58,0,0,0,.46-1.38c.11-.65.19-1.3.31-1.92.11-.77.19-1.5.27-2.26s.08-1.8.12-2.68c0-1.07,0-2.11.07-3.18s0-2.38,0-3.57c0-1.34,0-2.65.08-3.95s.11-2.8.15-4.18.15-2.88.23-4.29.19-2.84.31-4.26.23-2.76.38-4.14.27-2.65.5-3.95.46-2.34.73-3.53q.34-1.49.8-3c.31-.8.61-1.61,1-2.38a14.62,14.62,0,0,0,.84-1.73,5.75,5.75,0,0,1,.73-1.23,2.7,2.7,0,0,1,.84-.77,1.76,1.76,0,0,1,2,.31,3.09,3.09,0,0,1,.73,1.11c.19.42.31.88.46,1.3.15.57.27,1.11.46,1.65s.42,1.3.58,2,.31,1.5.5,2.22.38,1.69.58,2.57l.46,2.88c.15,1,.31,2.07.42,3.11s.23,2.22.38,3.3.27,2.38.38,3.6.23,2.57.31,3.83.11,2.68.15,4,.12,2.76.15,4.1.15,2.84.19,4.26.11,3,.23,4.45.08,3.14.12,4.68.08,3.18.11,4.79.08,3.26.08,4.91,0,3.26,0,4.91,0,3.11,0,4.68c0,1.42,0,2.84,0,4.26,0,1.19,0,2.34-.08,3.53,0,.84,0,1.73,0,2.57a13.65,13.65,0,0,0,.27,1.8,3.71,3.71,0,0,0,.5.84c.15.12.15,0,0-.08-1.73-.38-.73.42-.5-.54a9.39,9.39,0,0,0,.19-1.46c0-.61.08-1.23.12-1.84s.08-1.34.11-2,0-1.46.08-2.19.15-1.53.23-2.26.11-1.53.23-2.3.19-1.46.31-2.18.19-1.42.31-2.11a15.73,15.73,0,0,1,.58-1.92,10.37,10.37,0,0,1,.58-1.53,5.41,5.41,0,0,1,.69-1.11,3.54,3.54,0,0,1,.84-.84,3.25,3.25,0,0,1,1-.5,3.2,3.2,0,0,1,1.69.11,3.65,3.65,0,0,1,.88.38l.73.38c.19.11.42.23.65.34a1.1,1.1,0,0,0,.46.15c-3.22-.08-1,.54-1-.35,0-.46-.08-.92-.15-1.38s-.12-1.07-.15-1.61-.12-1.23-.19-1.8a21.09,21.09,0,0,1-.11-2.19c0-.84,0-1.65,0-2.49s0-1.84.08-2.76,0-2,.08-3v-3.33c0-1.23,0-2.42,0-3.64s0-2.61,0-3.95v-4.18c0-1.46.08-2.91.11-4.33s0-3,0-4.41-.08-3.07-.08-4.6-.08-3.18-.08-4.75,0-3.22,0-4.83,0-3.26-.08-4.87v-4.95c0-1.65.08-3.26.15-4.91s.12-3.11.15-4.68.19-2.91.35-4.41c.12-1.34.23-2.68.38-4,.11-1.19.34-2.38.58-3.56.19-1,.38-2,.57-2.91s.31-1.69.5-2.53.38-1.46.61-2.15.42-1.19.58-1.8c.15-.46.34-.92.54-1.38a5.29,5.29,0,0,1,.61-1,2,2,0,0,1,1-.61,2.13,2.13,0,0,1,2,1.07,8.81,8.81,0,0,1,.54,1.27c.15.58.23,1.15.42,1.69a19.1,19.1,0,0,1,.42,2.11c.11.77.23,1.53.34,2.34s.34,1.8.46,2.68.27,2,.38,3,.27,2.19.34,3.3.23,2.34.35,3.53.19,2.45.27,3.68.15,2.57.23,3.87.19,2.68.27,4,.19,2.8.27,4.22.15,3,.27,4.41.12,3,.19,4.56.15,3.07.23,4.6.19,3.14.31,4.72.19,3.22.31,4.83.19,3.22.27,4.87.27,3.26.38,4.91.27,3.34.38,5,.31,3.41.42,5.1.31,3.45.42,5.18.27,3.45.42,5.21.27,3.53.39,5.29.19,3.53.31,5.29.23,3.57.34,5.33.23,3.6.31,5.41.15,3.53.19,5.29.08,3.37.15,5.1.07,3.22.07,4.83c0,1.38-.15,2.8-.31,4.22-.12,1-.27,2.11-.38,3.14-.08.77-.15,1.53-.23,2.26a5.09,5.09,0,0,0,.08,1.53c.08.27.12.54.19.8.46.65-1.61-.27-2.38-.58-.19-.08.46-.08.69-.11.5-.23.42-.77.46-1.23a7.07,7.07,0,0,0,.11-1.57c-.07-.69-.15-1.38-.19-2-.08-.84-.11-1.69-.11-2.49s0-1.84,0-2.76,0-2,0-3,0-2.18,0-3.26,0-2.38.08-3.57.11-2.45.15-3.68.15-2.57.23-3.83.19-2.72.31-4.06.27-2.72.38-4.1.23-2.76.35-4.14.23-2.84.38-4.22.31-2.76.46-4.18.31-2.65.46-4,.31-2.68.5-4l.58-3.91c.23-1.3.46-2.57.69-3.87s.5-2.45.8-3.68.57-2.26.88-3.37c.31-1,.58-2,.88-2.91s.53-1.69.8-2.53c.23-.69.46-1.42.69-2.11s.46-1.15.61-1.73a13.49,13.49,0,0,1,.39-1.34,7.6,7.6,0,0,1,.38-1,2.39,2.39,0,0,1,.54-.69c.65-.61,1-.34,2-.12a5.81,5.81,0,0,1,.73,1.15,7.56,7.56,0,0,1,.31,1,7.42,7.42,0,0,1,.31,1.27c.12.46.19,1,.31,1.42s.19,1.11.23,1.69a13.51,13.51,0,0,1,.34,1.8c.15.65.23,1.3.34,2s.19,1.38.27,2.11.12,1.42.15,2.11.11,1.34.11,2a12.6,12.6,0,0,0,.15,1.69,4.31,4.31,0,0,0,.38,1.19,3.84,3.84,0,0,0,.5.84c.19.19.35.38.57.57a.44.44,0,0,0,.31.12s-.77,0-.35-.12a1.84,1.84,0,0,0,.35-.54,7.14,7.14,0,0,0,.38-1,7,7,0,0,0,.35-1.19c.11-.5.23-1,.34-1.46s.19-1.15.31-1.72.23-1.23.31-1.84.23-1.3.31-2l.35-2.18c.11-.77.23-1.53.27-2.3s.15-1.8.23-2.68l.23-3c.11-1.15.27-2.26.38-3.41s.27-2.49.42-3.72.3-2.68.42-4l.46-4.26c.15-1.49.35-3,.5-4.45s.38-3,.54-4.52.34-3,.46-4.52.31-3,.42-4.52.27-3.11.42-4.64.35-3,.58-4.56.46-2.84.73-4.26c.23-1.27.54-2.57.81-3.83.27-1.11.58-2.22.92-3.3.27-.92.61-1.8,1-2.68.27-.69.61-1.38.92-2.07.3-.54.57-1.07.88-1.61a6.54,6.54,0,0,1,.81-1.19,3.37,3.37,0,0,1,.92-.73A1.89,1.89,0,0,1,154,70a4.79,4.79,0,0,1,.61,1.07,14.14,14.14,0,0,1,.46,1.38c.12.54.27,1.11.42,1.69a16.5,16.5,0,0,1,.58,2c.19.77.38,1.57.54,2.34.19.92.38,1.84.54,2.76s.31,2.07.46,3.11.23,2.22.34,3.34l.34,3.68q.18,2,.23,3.91c.08,1.38.11,2.76.15,4.14s.08,2.91.11,4.33,0,3.07,0,4.6,0,3.18,0,4.79,0,3.3-.08,4.95-.11,3.34-.11,5-.08,3.41-.11,5.14,0,3.49-.08,5.21-.08,3.56-.08,5.33-.08,3.6-.12,5.41-.08,3.6-.11,5.44-.11,3.68-.19,5.52-.12,3.72-.12,5.56-.11,3.83-.19,5.75-.11,3.8-.15,5.71-.11,3.83-.15,5.75-.11,3.76-.15,5.67-.08,3.76-.15,5.64-.12,3.76-.15,5.63-.12,3.72-.15,5.6-.15,3.64-.23,5.44-.19,3.45-.34,5.18l-.34,4.64c-.12,1.34-.23,2.72-.34,4.06-.08,1.15-.15,2.3-.31,3.45-.08.92-.27,1.8-.42,2.72a16.18,16.18,0,0,0-.35,1.92c0,.42.08.84.12,1.27,0,.23,0,.42,0,.65-6-1.57-1.8.08-1.57-1.38.07-.46.15-.92.19-1.42a11.48,11.48,0,0,0,.15-1.65v-2c0-.81,0-1.61.08-2.42s.08-1.76.15-2.68.12-1.92.19-2.91.11-2,.19-3.07.11-2.22.15-3.34.11-2.42.19-3.64.19-2.49.31-3.72l.23-3.83c.08-1.34.19-2.64.27-4s.23-2.68.35-4,.27-2.72.42-4.1.34-2.72.54-4.1.42-2.72.65-4.1.42-2.68.65-4,.46-2.68.73-4,.46-2.61.73-3.87.5-2.53.73-3.76.46-2.42.69-3.6.54-2.15.84-3.22.46-1.88.73-2.84c.19-.8.42-1.65.69-2.45s.42-1.46.65-2.19a17.19,17.19,0,0,1,.69-1.84c.23-.54.38-1.07.57-1.61s.42-.92.65-1.38a6,6,0,0,1,.65-1,6.67,6.67,0,0,1,.65-.8l.69-.58a4.08,4.08,0,0,1,.77-.46,3.76,3.76,0,0,1,.88-.23,2.45,2.45,0,0,1,1.65.46,4.92,4.92,0,0,1,.69.58c.19.23.38.46.58.73a5.52,5.52,0,0,1,.58.84c.23.34.38.73.57,1.07s.35.84.5,1.27a13.33,13.33,0,0,1,.42,1.34c.15.5.31,1,.42,1.5s.27,1,.38,1.49.27,1,.38,1.42a10.55,10.55,0,0,0,.34,1.19,2.91,2.91,0,0,0,.35.69c.08.12.15.08.23.08,0-.19-.69,0-.27-.08a1.5,1.5,0,0,0,.42-.23c.19-.15.38-.34.58-.5s.46-.54.69-.84.54-.73.77-1.07.61-.84.88-1.26.61-1,.92-1.5.61-1.07.92-1.65.69-1.15,1-1.72.77-1.15,1.11-1.73.69-1.11,1.07-1.65.69-1.07,1.07-1.57.73-1,1.11-1.42a15.87,15.87,0,0,1,1.11-1.15c.35-.31.73-.61,1.11-.92a10.78,10.78,0,0,1,1.11-.65,5.69,5.69,0,0,1,1.11-.46,5.21,5.21,0,0,1,1.11-.23,4.15,4.15,0,0,1,1.69.15,4.75,4.75,0,0,1,1,.38,8,8,0,0,1,1,.61,6.17,6.17,0,0,1,.92.77c.3.31.61.58.88.88s.58.69.88,1.07.53.73.81,1.15.57.81.84,1.19.54.81.8,1.19.5.77.73,1.15.5.73.77,1.07a13,13,0,0,0,.81,1c.31.35.65.65,1,1l1.11,1c.34.31.73.61,1.11.92s.77.54,1.19.8a8.37,8.37,0,0,0,1.3.69,7.49,7.49,0,0,0,1.38.61,9.38,9.38,0,0,0,1.46.5,8,8,0,0,0,1.61.35c.54.08,1.11.11,1.69.15a11.86,11.86,0,0,0,1.26,0c.61,0,1.23-.08,1.84-.08s1.23-.08,1.8-.15,1.26-.12,1.88-.23,1.34-.19,2-.27,1.5-.19,2.22-.31l2.34-.23,2.45-.23c.85-.08,1.73-.15,2.57-.27s1.8-.12,2.69-.19l2.8-.23c1-.12,2-.23,2.92-.31s2.07-.19,3.1-.31,2.19-.19,3.3-.27,2.26-.19,3.37-.27l3.49-.23c1.22-.12,2.42-.15,3.6-.23s2.42-.12,3.64-.15,2.49-.11,3.72-.19l3.76-.11c1.31,0,2.57,0,3.87-.08h5c1.27,0,2.57,0,3.87.08s2.49,0,3.76.08l3.64.12c1.15,0,2.34.08,3.49.11s2.26.08,3.37.08a10.75,10.75,0,0,0,1.11,0c3.49,1,2.53,4.49-1,3.53h-1.07c-1.15,0-2.3,0-3.41,0s-2.38,0-3.57,0h-3.68c-1.26,0-2.53,0-3.76,0s-2.61,0-3.91,0-2.68,0-2.8,0h-3.84c-1.26,0-2.53,0-3.76,0s-2.45,0-3.68,0-2.46.08-3.64.15-2.42.12-3.61.12-2.34.11-3.49.15-2.3.11-3.45.15-2.19.08-3.3.12l-3.14.12-3,.11-2.84.12-2.72.12-2.61.12-2.46.11c-.81,0-1.61.12-2.38.12l-2.26.12-2.11.11c-.61,0-1.27.08-1.92.11l-1.84.12c-.65.08-1.27.08-1.88.12a16.92,16.92,0,0,1-2.42,0,10.17,10.17,0,0,1-1.88-.27c-.58-.12-1.15-.27-1.73-.42a16,16,0,0,1-1.61-.58l-1.5-.69c-.5-.27-1-.5-1.42-.8l-1.3-.92c-.38-.31-.77-.65-1.15-1s-.77-.65-1.15-1-.73-.73-1.07-1.11-.58-.77-.88-1.15-.54-.73-.77-1.11-.5-.77-.77-1.15-.54-.8-.81-1.19a13.18,13.18,0,0,0-.8-1.19,10.61,10.61,0,0,0-.77-1.07,9.24,9.24,0,0,0-.8-.92,7.83,7.83,0,0,0-.81-.8,6.17,6.17,0,0,0-.77-.61,4.89,4.89,0,0,0-.77-.42,2.42,2.42,0,0,0-.69-.23c-.19,0-.92,0-.23-.08h-.11a2.93,2.93,0,0,0-.81.12,7.65,7.65,0,0,0-.88.27,10.44,10.44,0,0,0-.92.54,9.22,9.22,0,0,0-1,.77,7.74,7.74,0,0,0-1,1,5.82,5.82,0,0,0-.92,1.3c-.35.54-.65,1.11-1,1.61s-.69,1.15-1,1.69l-1,1.73a16.19,16.19,0,0,1-1.11,1.72c-.35.54-.77,1.07-1.11,1.61s-.69.92-1,1.42a15.56,15.56,0,0,1-.88,1.3l-.81,1.15c-.27.34-.5.65-.77,1a6.92,6.92,0,0,1-.77.73,2.83,2.83,0,0,1-.81.5,2,2,0,0,1-1.76,0,1.94,1.94,0,0,1-.81-.77,3.84,3.84,0,0,1-.5-1.07c-.15-.42-.31-.84-.42-1.26s-.23-1-.34-1.42-.27-1-.38-1.49-.27-1-.42-1.46-.27-.84-.42-1.26-.27-.73-.42-1.11-.31-.61-.5-.92a8.07,8.07,0,0,0-.5-.69,6.59,6.59,0,0,0-.46-.54,3.17,3.17,0,0,0-.42-.35c-.19-.08-.69-.11.08-.08a.38.38,0,0,0-.34,0,2.21,2.21,0,0,0-.46.19,2.82,2.82,0,0,0-.54.42,3.69,3.69,0,0,0-.54.57,6.15,6.15,0,0,0-.54.84,14.12,14.12,0,0,0-1,2.68c-.15.61-.23,1.26-.35,1.88s-.23,1.42-.35,2.15-.19,1.65-.3,2.49-.23,1.88-.31,2.84-.19,2.18-.31,3.3-.34,2.41-.54,3.6-.34,2.53-.54,3.76-.42,2.64-.61,3.95-.46,2.64-.65,3.95-.42,2.68-.65,4-.38,2.68-.57,4-.38,2.68-.58,4l-.46,4c-.15,1.34-.27,2.68-.38,4s-.23,2.65-.38,3.95-.27,2.57-.38,3.87-.23,2.49-.34,3.72-.31,2.42-.46,3.6-.31,2.22-.5,3.34-.31,2.07-.42,3.07-.23,2-.39,2.91-.27,1.8-.46,2.68-.31,1.57-.46,2.38c-.15.65-.27,1.3-.42,2s-.15,1.11-.23,1.65-.11,1-.15,1.46c-.12.65.73,1.11.73,1.11-2.8,1.19-2.68,1.38-3,.27a4.81,4.81,0,0,0-.08-.73c0-.46-.08-.92-.08-1.38-.08-.65-.31-1.3-.42-2-.15-.88-.35-1.8-.42-2.72-.15-1.15-.27-2.3-.38-3.41-.15-1.38-.27-2.72-.34-4.1-.15-1.57-.23-3.14-.31-4.72,0-1.72,0-3.49-.08-5.21s0-3.6,0-5.44,0-3.72.08-5.6.08-3.76.11-5.64.12-3.8.15-5.67.08-3.76.12-5.67,0-3.83.12-5.75.08-3.83.15-5.75.15-3.83.27-5.75.19-3.72.31-5.6.11-3.64.23-5.44.12-3.64.19-5.44.11-3.57.15-5.37.07-3.57.15-5.33.12-3.49.19-5.25.11-3.41.23-5.14l.23-5c.08-1.65.12-3.3.23-4.95s.15-3.18.27-4.75.15-3,.19-4.52.11-2.84.11-4.26,0-2.72.08-4.1,0-2.57,0-3.87,0-2.42,0-3.6,0-2.18-.08-3.3-.08-2-.11-3.07c0-.88,0-1.8-.11-2.68s-.08-1.57-.15-2.34-.12-1.34-.15-2a7.74,7.74,0,0,0-.35-1.57,5.73,5.73,0,0,0-.38-1.15,1.94,1.94,0,0,0-.34-.61c-.46-.23.31.15.42-.15a.4.4,0,0,0-.35.19,4.72,4.72,0,0,0-.65.88,4.19,4.19,0,0,0-.54,1.46,20.31,20.31,0,0,0-.34,2c-.12.88-.19,1.76-.27,2.65-.08,1.11-.15,2.19-.23,3.3-.12,1.27-.23,2.53-.31,3.8-.12,1.42-.19,2.84-.35,4.26s-.27,3-.42,4.52-.27,3-.42,4.56-.31,3.07-.46,4.56-.31,3.07-.46,4.56-.34,3.07-.58,4.56-.38,3-.61,4.49-.46,2.88-.73,4.29-.5,2.68-.8,4-.5,2.45-.77,3.68-.46,2.22-.73,3.34l-.69,3c-.19.88-.42,1.73-.58,2.61s-.34,1.57-.54,2.38-.35,1.42-.54,2.15-.31,1.3-.5,2-.27,1.19-.42,1.8a13.28,13.28,0,0,0-.38,1.69c-.12.5-.23,1-.35,1.53s-.23.88-.38,1.34a11.61,11.61,0,0,1-.5,1.19,5.41,5.41,0,0,1-.61,1,1.93,1.93,0,0,1-2,.54,2.05,2.05,0,0,1-.84-.57,4.94,4.94,0,0,1-.73-.81,7.06,7.06,0,0,1-.69-1.15,10.1,10.1,0,0,1-.46-1.53c-.11-.61-.34-1.19-.42-1.8s-.15-1.34-.27-2-.19-1.42-.23-2.11a19.55,19.55,0,0,1-.15-2.11c0-.65-.11-1.3-.15-2s-.08-1.23-.15-1.84-.15-1.07-.23-1.61-.19-.92-.27-1.38a9.43,9.43,0,0,0-.31-1.11,5.4,5.4,0,0,0-.27-.84c-.08-.15-.12-.23-.31-.23.65,0,.81,0,.84-.15a.32.32,0,0,0-.19.19,2.48,2.48,0,0,0-.31.73,11.74,11.74,0,0,0-.38,1.23c-.11.58-.15,1.19-.23,1.76-.08.73-.19,1.46-.31,2.18-.08.88-.19,1.73-.31,2.61s-.31,2-.42,3-.35,2.22-.5,3.34-.31,2.45-.54,3.68-.42,2.53-.61,3.8-.38,2.61-.54,3.87-.35,2.57-.46,3.87-.23,2.68-.31,4-.23,2.76-.35,4.14-.27,2.8-.42,4.22-.23,2.76-.38,4.14L125,183c-.15,1.34-.31,2.65-.46,4s-.31,2.53-.46,3.79-.23,2.42-.35,3.61-.19,2.34-.27,3.49-.19,2.19-.27,3.26-.19,2-.27,3-.15,1.84-.27,2.76-.15,1.65-.23,2.45-.23,1.42-.35,2.11c-.11.54-.08,1.07-.15,1.65s-.31,1.11,0,1.61c1.84,2.26-2.38,2-2.49.54a7.47,7.47,0,0,1-.19-1,10.15,10.15,0,0,0-.38-1.57q-.4-1.15-.69-2.3c-.23-1.07-.5-2.11-.73-3.18-.27-1.38-.46-2.76-.65-4.18-.19-1.57-.35-3.18-.42-4.79s-.27-3.37-.42-5.06-.23-3.53-.38-5.29-.19-3.61-.27-5.37-.19-3.56-.27-5.33-.23-3.53-.31-5.29-.23-3.53-.35-5.25-.23-3.49-.35-5.21-.23-3.45-.34-5.18-.23-3.37-.34-5.1-.19-3.33-.31-5-.19-3.3-.27-4.95-.19-3.26-.27-4.91-.15-3.22-.19-4.83-.12-3.18-.19-4.75-.12-3.07-.15-4.64-.08-3-.12-4.56,0-3,0-4.45,0-2.8,0-4.22,0-2.68,0-4,0-2.53-.08-3.83-.08-2.45-.08-3.68,0-2.3-.08-3.49-.08-2.15-.12-3.26-.08-2-.08-3,0-1.84,0-2.72,0-1.57,0-2.38c0-.65,0-1.3,0-2a7,7,0,0,0-.27-1.5,6.07,6.07,0,0,0-.38-.88c-.23-.27-.61-.23.34-.19,0-.08.08-.15-.08-.08a2.19,2.19,0,0,0-.42.61c-.19.38-.31.77-.46,1.15a13,13,0,0,0-.27,1.69c0,.69-.11,1.42-.11,2.11-.08.84-.12,1.65-.15,2.49s0,2,0,2.91c0,1.19.08,2.34.08,3.49v4c0,1.46,0,2.91.08,4.33,0,1.57,0,3.11,0,4.68s.08,3.22.08,4.87,0,3.26,0,4.91,0,3.26,0,4.87,0,3.22,0,4.83,0,3.14,0,4.72,0,3.11-.08,4.68-.08,3-.12,4.45-.12,3-.19,4.41-.19,2.8-.31,4.22-.23,2.61-.31,3.87-.19,2.45-.31,3.64-.15,2.26-.27,3.37-.23,2.07-.38,3.1l-.46,2.76c-.15.81-.31,1.61-.42,2.38a17.39,17.39,0,0,0-.23,2,8.88,8.88,0,0,0,0,1.76c0,.54.08,1.07.15,1.57s.08,1,.11,1.53c0,.15,0,.46.08.61s.46.38.34.54c-1,1-1.34,1.15-2.15.88-.27-.12-.5-.23-.73-.34s-.46-.23-.65-.35l-.69-.35a2,2,0,0,0-.61-.23c-.65-.08.31,0-.12,0a1,1,0,0,0-.46.08,6,6,0,0,0-.54.46,6.2,6.2,0,0,0-.54.84,8.17,8.17,0,0,0-.5,1.23c-.08.61-.12,1.19-.15,1.76s-.11,1.42-.19,2.11-.11,1.46-.19,2.19-.15,1.53-.23,2.26-.19,1.53-.27,2.26-.15,1.42-.27,2.15-.15,1.34-.27,2-.19,1.23-.31,1.84a12,12,0,0,1-.27,1.65c-.08.34-.34.73-.42,1.07,0,.15.19.38,0,.46a6.67,6.67,0,0,1-1.57.42,2,2,0,0,1-1-.69,5.7,5.7,0,0,1-.73-1.23c-.31-.65-.77-1.23-1-1.88a26.06,26.06,0,0,1-1.92-6.4,42.16,42.16,0,0,1-.54-4.37c-.11-1.57-.19-3.18-.27-4.75s-.12-3.3-.12-4.95,0-3.26,0-4.91,0-3.18,0-4.79,0-3.07,0-4.64,0-3,0-4.41,0-2.88,0-4.29v-4.06c0-1.34,0-2.64,0-3.95s-.08-2.53-.08-3.8,0-2.38-.08-3.53-.08-2.22-.15-3.3-.11-2.07-.19-3.11-.11-1.88-.15-2.84-.08-1.69-.15-2.53a20.81,20.81,0,0,0-.23-2.18c-.08-.65-.12-1.3-.23-2a11.48,11.48,0,0,0-.34-1.57,7.82,7.82,0,0,0-.42-1.11,1.2,1.2,0,0,0-.3-.46c-.42-.19.5.19.5-.12a.65.65,0,0,0-.38.27,4.14,4.14,0,0,0-.54.88,4.68,4.68,0,0,0-.34,1.61c-.08.81-.15,1.57-.19,2.34-.08,1-.15,2-.27,3s-.15,2.26-.23,3.41-.11,2.53-.15,3.8-.11,2.76-.19,4.14-.11,2.84-.19,4.26-.19,2.88-.31,4.29-.23,2.76-.34,4.14-.23,2.65-.38,4c-.11,1.19-.31,2.42-.5,3.64-.15,1.07-.35,2.15-.54,3.22-.23.92-.42,1.84-.69,2.76-.19.77-.42,1.53-.65,2.3a16.1,16.1,0,0,1-.73,1.92c-.19.5-.35,1.07-.54,1.57a4,4,0,0,0-.54,1c-.23,1.15,1.15.34-1.65.81a2,2,0,0,1-.92-1c-.15-.46-.27-.92-.38-1.42-.27-.61-.5-1.26-.73-2s-.42-1.61-.61-2.45-.31-1.76-.5-2.65-.31-1.73-.46-2.57-.31-1.65-.5-2.45-.35-1.57-.54-2.38-.35-1.46-.58-2.19a18.72,18.72,0,0,0-.58-2,8.08,8.08,0,0,0-.58-1.61,11,11,0,0,0-.73-1.15,4,4,0,0,0-.65-.77.86.86,0,0,0-.5-.23c-.5,0,.58,0,0,0a1.17,1.17,0,0,0-.46.19,3.06,3.06,0,0,0-.57.65c-.23.34-.46.73-.65,1.07s-.42.81-.65,1.19-.42.81-.65,1.19-.46.77-.73,1.15a5.26,5.26,0,0,1-.77.84,3.07,3.07,0,0,1-.81.58,4.16,4.16,0,0,1-.88.34,4.85,4.85,0,0,1-1.07.23,14.16,14.16,0,0,1-1.8,0,17.69,17.69,0,0,0-2,.27c-.92.15-1.84.23-2.8.31-1.19.08-2.38.12-3.57.15-1.38,0-2.76.08-4.14,0s-3,0-4.49-.08-3-.15-4.49-.19l-4.49-.12c-1.5,0-3,0-4.45-.12l-4.33-.12c-1.42,0-2.8-.08-4.18-.15a4.16,4.16,0,0,1-.69,0c-.15,0,.57,0,.42,0-.84-.15-1.76.08-2.65,0-1.27,0-2.53,0-3.8-.08s-2.42,0-3.61,0-2.19,0-3.3,0-2,0-3,0-2.11-.23-3.18-.31a2.75,2.75,0,0,0-2,.11c-2.42-.73-1.69-3.14.73-2.45Z" transform="translate(0 -69.23)"/></svg>