<svg class="icon" width="32" height="28.13" viewBox="0 0 1165 1024" xmlns="http://www.w3.org/2000/svg"><path d="M318.64 103.918a234.108 234.108 0 01233.861 233.86h.212a35.416 35.416 0 1070.903 0c0-.246-.106-.423-.106-.67a234.108 234.108 0 01233.825-233.19 234.108 234.108 0 01233.825 233.86c0 80.544-50.494 142.443-98.622 191.1l-404.62 367.51-401.056-364.685C125.564 469.981 84.745 413.413 84.745 337.78a234.108 234.108 0 01233.86-233.86zm269.171 887.914l453.562-411.966c56.073-56.637 120.408-135.344 120.408-242.087 0-167.9-136.58-304.481-304.446-304.481a304.834 304.834 0 00-269.347 162.568A304.834 304.834 0 00318.64 33.298c-167.866 0-304.482 136.58-304.482 304.48 0 105.65 58.969 179.554 123.94 244.913L587.81 991.868z"/></svg>