<svg class="icon" viewBox="0 0 1024 1024" xmlns="http://www.w3.org/2000/svg" width="32" height="32"><defs><style/></defs><path d="M608 768a32 32 0 01-32-32V384a32 32 0 1164 0v352a32 32 0 01-32 32zm-192 0a32 32 0 01-32-32V384a32 32 0 1164 0v352a32 32 0 01-32 32zm512-544H768v-64c0-52.928-42.72-96-95.264-96H352c-52.928 0-96 43.072-96 96v64H96a32 32 0 100 64h832a32 32 0 100-64zm-608-64c0-17.632 14.368-32 32-32h320.736C690.272 128 704 142.048 704 160v64H320v-64zm416.128 800H288.064c-52.928 0-96-43.072-96-96V383.52a32 32 0 0164 0V864c0 17.664 14.368 32 32 32h448.064a32 32 0 0032-32V384.832a32 32 0 1164 0V864c0 52.928-43.072 96-96 96z"/></svg>