<svg class="icon" viewBox="0 0 1024 1024" xmlns="http://www.w3.org/2000/svg" width="200" height="200"><defs><style/></defs><path d="M627.087 5.115c28.132-7.672 58.822-7.672 86.954 0 33.247 7.672 63.937 23.017 89.512 43.477 10.23 7.673 17.902 15.345 23.017 28.132 7.673 17.903 5.115 38.363-5.115 53.708-7.672 12.787-23.017 23.017-40.92 25.574-12.787 2.558-25.574 0-38.362-7.672-5.115-2.558-10.23-10.23-17.902-12.787-17.902-10.23-35.805-20.46-56.265-17.903-15.345 0-28.132 7.673-35.804 17.903-10.23 10.23-12.788 23.017-10.23 35.804 7.672 25.575 12.787 53.707 20.46 79.282 51.15 2.558 99.741 15.345 143.219 40.92 40.92 25.575 79.281 58.822 109.971 97.184 25.575 33.247 46.035 71.61 56.265 112.53 12.787 43.477 17.902 89.511 12.787 132.988-2.557 38.363-10.23 74.167-23.017 109.972-33.247 84.397-92.07 161.121-171.351 209.714-56.265 35.804-122.76 58.822-189.254 66.494-46.035 5.115-92.07 5.115-138.104-2.557-94.627-15.345-181.581-61.38-250.633-130.432-66.495-66.494-112.53-153.449-132.99-245.518-7.672-69.052-7.672-138.104 7.673-207.156 17.903-81.84 61.38-161.121 117.644-222.501 48.593-51.15 107.415-89.512 171.352-117.644 7.672-2.558 12.787-5.115 20.46-7.673 15.344-2.557 30.69 0 43.477 10.23 17.902 12.788 25.574 33.248 23.017 53.707-2.557 20.46-17.902 38.363-35.805 46.035-63.937 25.575-122.759 69.052-163.679 122.76-38.362 53.706-63.937 112.528-71.609 173.908-7.672 61.38 0 122.759 20.46 181.581 30.69 84.397 94.627 156.006 173.909 196.926 48.592 25.575 102.299 38.362 156.006 38.362 43.477 0 89.512-7.672 130.431-23.017 35.805-12.787 71.61-33.247 99.742-58.822 28.133-23.017 51.15-53.707 66.495-84.397 7.672-15.345 17.902-33.247 20.46-51.15 15.345-51.15 17.902-107.414 2.557-158.563-12.787-43.478-38.362-81.84-71.61-109.972-15.344-12.787-30.69-25.575-48.592-35.805-15.344-7.672-30.69-15.345-48.592-17.902 12.788 46.034 23.018 92.07 35.805 135.546 2.558 10.23 5.115 23.018 5.115 33.248 2.558 46.034-15.345 94.626-46.035 130.431-28.132 33.247-69.052 58.822-112.529 66.495-46.034 10.23-97.184 0-138.104-25.575-38.362-25.575-66.494-63.937-81.84-104.857-7.672-23.017-12.787-48.592-12.787-74.167-2.557-56.264 12.788-109.972 43.478-156.006 35.804-53.707 94.626-92.07 158.563-109.972-5.115-17.902-10.23-35.805-12.787-53.707-12.787-38.362-10.23-81.84 7.672-115.087 10.23-20.46 23.018-38.362 40.92-51.15 23.017-20.46 43.477-33.247 66.495-40.919M478.753 419.427c-17.903 17.902-28.133 40.92-33.248 63.937-5.114 20.46-5.114 43.477 0 66.495 5.115 23.017 17.903 46.034 38.363 61.38 15.345 10.229 35.804 15.344 56.264 10.229 35.805-5.115 63.937-38.362 63.937-74.167-2.557-7.672-2.557-17.902-5.115-25.575-12.787-48.592-25.574-99.742-38.362-148.334-30.69 7.673-58.822 23.018-81.84 46.035z"/></svg>