<svg class="icon" viewBox="0 0 1024 1024" xmlns="http://www.w3.org/2000/svg" width="32" height="32"><defs><style/></defs><path d="M803.584 134.592c-18.176-10.048-39.936-10.112-58.112 0L192 443.008v-282.88c0-17.664-14.336-32-32-32s-32 14.336-32 32v344.896c-.256 2.176-.896 4.224-.896 6.464s.64 4.352.896 6.528v346.112c0 17.664 14.336 32 32 32s32-14.336 32-32v-284.16L745.408 888.32c9.152 5.12 19.072 7.68 29.12 7.68s19.968-2.56 29.056-7.616c18.176-10.112 28.992-28.224 28.992-48.576V183.104c0-20.224-10.816-38.336-28.992-48.512zm-35.392 694.656l-570.176-317.76L771.328 192l-3.136 637.248z"/></svg>