<svg class="icon" width="32" height="32" viewBox="0 0 1024 1024" xmlns="http://www.w3.org/2000/svg"><path d="M500.864 952.64c-239.648 0-434.656-194.976-434.656-434.624 0-239.68 195.008-434.624 434.656-434.624 239.68 0 434.656 194.944 434.656 434.624 0 239.68-195.008 434.624-434.656 434.624m0-933.28C225.92 19.36 2.24 243.104 2.24 518.016c0 274.944 223.68 498.624 498.624 498.624S999.52 792.96 999.52 518.016c0-274.912-223.68-498.624-498.656-498.624m-96 306.624a32 32 0 00-32 32v320a32 32 0 0064 0v-320a32 32 0 00-32-32m192 0a32 32 0 00-32 32v320a32 32 0 0064 0v-320a32 32 0 00-32-32"/></svg>