<svg class="icon" viewBox="0 0 1024 1024" xmlns="http://www.w3.org/2000/svg" width="32" height="32"><defs><style/></defs><path d="M832 832a32 32 0 013.744 63.776L832 896H192a32 32 0 01-3.744-63.776L192 832h640zm0-304a32 32 0 013.744 63.776L832 592H192a32 32 0 01-3.744-63.776L192 528h640zM224.256 128.544a64 64 0 0126.816 5.888L256 136.96l127.488 72.832a64 64 0 014.832 108.096l-4.8 3.04L256 393.824a64 64 0 01-95.52-50.016l-.224-5.568V192.544a64 64 0 0164-64zm0 64V338.24l127.488-72.864-127.488-72.832zM832 224a32 32 0 013.744 63.776L832 288H496a32 32 0 01-3.744-63.776L496 224h336z"/></svg>