<svg class="icon" viewBox="0 0 1024 1024" xmlns="http://www.w3.org/2000/svg" width="32" height="32"><defs><style/></defs><path d="M264.566 203a15 15 0 00-15.014 14.986L249 807.344a15 15 0 0022.646 12.92l497.348-294.7a15 15 0 00.004-25.806L272.204 205.1a15 15 0 00-7.64-2.098zm53.55-75.31l496.796 294.66c49.876 29.584 66.328 93.998 36.744 143.874a105 105 0 01-36.784 36.768l-497.346 294.7c-49.89 29.56-114.298 13.08-143.86-36.808A105 105 0 01159 807.26l.552-589.36c.054-57.988 47.108-104.954 105.098-104.9a105 105 0 0153.466 14.69z"/></svg>