<svg class="icon" width="32" height="30.83" viewBox="0 0 1063 1024" xmlns="http://www.w3.org/2000/svg"><path d="M911.478 682.654a38.99 38.99 0 00-30.326-13.116c-21.898.828-38.912 19.299-38.085 41.197.473 11.933 6.38 22.055 14.966 28.987l47.183 47.222a289.201 289.201 0 01-139.264-61.794L331.697 257.063a369.388 369.388 0 00-277.74-125.912 39.385 39.385 0 100 78.769h.04c83.652 0 163.249 36.116 219.214 99.88l433.625 468.007 8.27 7.483a369.664 369.664 0 00194.048 81.762l-52.539 51.082.985.945a39.07 39.07 0 00-17.605 33.714c.867 21.897 19.299 38.99 41.157 38.124a38.912 38.912 0 0029.972-16.7l.394.395 148.48-144.227L911.95 682.181l-.473.473zm-.315-651.895a38.99 38.99 0 00-30.011-16.699 39.66 39.66 0 00-41.118 38.125 38.99 38.99 0 0017.605 33.673l-.984 1.024 48.6 47.262a366.08 366.08 0 00-217.481 106.26L559.222 379.746l.197.197a38.99 38.99 0 00-10.634 26.506 39.385 39.385 0 0039.385 39.385 38.99 38.99 0 0028.75-12.879l.198.197L743.7 295.857a287.665 287.665 0 01166.675-82.944l-52.224 52.303a39.109 39.109 0 00-15.045 29.026c-.866 21.898 16.148 40.33 38.046 41.197a38.99 38.99 0 0030.326-13.115l.473.433 148.047-148.165-148.48-144.226-.394.393zm-495.38 524.13a38.873 38.873 0 00-28.672 12.761l-.197-.157-133.75 144.266a289.201 289.201 0 01-199.207 79.084v.473c-.867-.04-1.575-.473-2.442-.473a39.385 39.385 0 100 78.77c.867 0 1.575-.473 2.442-.473v.472c94.562 0 184.517-35.722 255.094-102.4l135.601-146.156-.197-.158a38.873 38.873 0 0010.713-26.624 39.385 39.385 0 00-39.385-39.384"/></svg>