<svg class="icon" width="32" height="32" viewBox="0 0 1024 1024" xmlns="http://www.w3.org/2000/svg"><path d="M773.598 203.776l-.273.444a33.621 33.621 0 00-20.344-6.486c-18.978.785-33.723 16.726-32.972 35.772a33.826 33.826 0 0015.633 26.795l-.103.17a375.228 375.228 0 01166.298 311.877c0 207.018-168.448 375.466-375.467 375.466-27.819 0-27.819 0-54.34-2.9-90.453-9.9-152.61-58.983-155.546-61.202a375.33 375.33 0 01-165.58-311.364c0-201.421 159.539-365.841 358.843-374.648l-41.984 40.824.82.853a33.86 33.86 0 00-15.258 29.218c.75 18.978 16.725 33.758 35.67 33.041a33.792 33.792 0 0026.009-14.472l.307.341L643.959 162.51 515.686 34.099l-.41.41a33.69 33.69 0 00-26.316-11.4c-18.944.75-33.69 16.725-32.973 35.703a33.894 33.894 0 0013.04 25.156l45.226 45.26c-239.07 6.486-431.65 202.514-431.65 443.12 0 147.626 73.113 285.15 193.194 366.114 3.072 2.56 77.551 62.19 188.758 74.308 29.423 3.209 31.13 3.311 61.781 3.311 244.668 0 443.733-199.066 443.733-443.733a443.392 443.392 0 00-196.471-368.572M542.07 400.828a33.28 33.28 0 00-17.134 6.075l-.171-.307-106.803 69.7.17.274a33.997 33.997 0 00-15.838 29.696c.751 18.944 16.726 33.723 35.67 32.972a33.11 33.11 0 0017.1-6.041l.205.273 54-35.26v249.856h.033c0 .478-.238.888-.204 1.365a34.202 34.202 0 1068.403-1.365h.034v-.17c0-.41.205-.751.205-1.161 0-.273-.17-.478-.205-.785V435.2c0-.478.205-.887.205-1.331a34.406 34.406 0 00-35.67-33.041"/></svg>