<svg class="icon" width="32" height="32" viewBox="0 0 1024 1024" xmlns="http://www.w3.org/2000/svg"><path d="M500.864 83.392c239.68 0 434.656 194.976 434.656 434.624 0 239.648-195.008 434.656-434.656 434.656S66.24 757.664 66.24 518.016 261.216 83.392 500.864 83.392m0 933.28c274.944 0 498.656-223.712 498.656-498.656S775.84 19.392 500.864 19.392C225.92 19.392 2.24 243.072 2.24 518.016s223.68 498.656 498.624 498.656m-64-604.16l189.024 105.504L436.864 623.52V412.512zm-32 297.504a31.04 31.04 0 0015.36-4.48l.224.416 286.72-160-.256-.416a31.584 31.584 0 0016.64-27.52 31.552 31.552 0 00-16.64-27.52l.224-.416-286.688-160-.224.416a30.72 30.72 0 00-15.36-4.48 32 32 0 00-32 32v320a32 32 0 0032 32z"/></svg>