<svg class="icon" width="32" height="32" viewBox="0 0 1024 1024" xmlns="http://www.w3.org/2000/svg"><path d="M905.616 524.966c0-132.932-65.365-256.56-174.886-331.941v-.031c-1.24-.868-2.356-1.923-3.627-2.79l-.249.402a30.574 30.574 0 00-18.48-5.891 31.256 31.256 0 00-29.954 32.465 30.636 30.636 0 0014.233 24.341l-.124.186a340.84 340.84 0 01151.07 283.29c0 185.272-148.559 336.188-332.777 340.653l39.194-39.194a30.76 30.76 0 0011.752-22.822 31.225 31.225 0 00-29.954-32.465 30.729 30.729 0 00-23.876 10.357l-.372-.372-116.59 116.652 116.9 113.582.31-.31a30.698 30.698 0 0023.628 13.147 31.256 31.256 0 0032.403-30.015 30.915 30.915 0 00-13.86-26.543l.744-.775-40.341-39.226c218.451-4.434 394.856-183.164 394.856-402.67M487.41 184.654l-38.14 37.085.744.775a30.76 30.76 0 00-13.86 26.543c.682 17.24 15.162 30.698 32.403 29.985a30.698 30.698 0 0023.628-13.116l.279.31 116.87-113.583-116.529-116.59-.372.31a30.698 30.698 0 00-23.907-10.325c-17.21.65-30.605 15.194-29.954 32.434a30.946 30.946 0 0011.876 22.884l41.055 41.086c-217.18 5.922-392.097 183.97-392.097 402.546 0 134.11 66.45 259.071 177.676 334.266l34.73-51.411a340.964 340.964 0 01-150.39-282.855c0-182.948 144.932-332.344 325.988-340.344"/></svg>