<svg class="icon" viewBox="0 0 1024 1024" xmlns="http://www.w3.org/2000/svg" width="32" height="32"><defs><style/></defs><path d="M832 160.128c0-17.664-14.336-32-32-32s-32 14.336-32 32v282.88L214.592 134.592c-18.176-10.112-39.936-10.048-58.112 0-18.24 10.176-29.056 28.288-29.056 48.576v656.64c0 20.224 10.816 38.464 29.056 48.576 9.088 5.056 19.008 7.616 28.992 7.616s19.968-2.56 29.056-7.616L768 579.968v284.096c0 17.664 14.336 32 32 32s32-14.336 32-32V160.128zm-640.192 669.12L188.672 192l573.312 319.488-570.176 317.76z"/></svg>