<svg class="icon" viewBox="0 0 1024 1024" xmlns="http://www.w3.org/2000/svg" width="32" height="32"><defs><style/></defs><path d="M288 896H160c-17.664 0-32-14.304-32-32V320c0-17.664 14.336-32 32-32h128c17.664 0 32 14.336 32 32v544c0 17.696-14.336 32-32 32zm-96-64h64V352h-64v480zM576 896H448c-17.664 0-32-14.304-32-32V512c0-17.664 14.336-32 32-32h128c17.696 0 32 14.336 32 32v352c0 17.696-14.304 32-32 32zm-96-64h64V544h-64v288zM864 896H736c-17.696 0-32-14.304-32-32V160c0-17.664 14.304-32 32-32h128c17.696 0 32 14.336 32 32v704c0 17.696-14.304 32-32 32zm-96-64h64V192h-64v640z"/></svg>