<svg class="icon" viewBox="0 0 1024 1024" xmlns="http://www.w3.org/2000/svg" width="32" height="32"><defs><style/></defs><path d="M480.768 932.352c-249.856 0-453.12-203.264-453.12-453.12S230.912 25.6 480.768 25.6s453.12 203.264 453.12 453.12-202.752 453.632-453.12 453.632zm0-811.52c-197.12 0-357.888 160.768-357.888 357.888s160.768 357.888 357.888 357.888S838.656 675.84 838.656 478.72 678.4 120.832 480.768 120.832z"/><path d="M948.736 998.4a47.616 47.616 0 0 1-33.792-13.824L737.792 807.424c-18.432-18.432-18.432-48.64 0-67.584s48.64-18.432 67.584 0l177.152 177.152c18.432 18.432 18.432 48.64 0 67.584a47.616 47.616 0 0 1-33.792 13.824z"/></svg>