<svg class="icon" viewBox="0 0 1025 1024" xmlns="http://www.w3.org/2000/svg" width="32.031" height="32"><defs><style/></defs><path d="M1001.163 15.012A63.828 63.828 0 00960.04 0c-3.686 0-7.413.328-11.14.983L404.838 96.991c-30.597 5.386-52.858 31.928-52.858 63.016v549.426c-32.48-23.551-74.628-37.436-121.403-37.436-27.197 0-54.394 4.505-80.936 13.312C88.9 705.563 40.2 746.174 16.013 796.799c-18.677 39.137-21.094 81.694-6.84 119.867C33.523 981.873 102.703 1024 185.42 1024c27.197 0 54.394-4.444 80.895-13.312 60.701-20.193 109.402-60.804 133.588-111.368 10.404-21.831 15.257-44.666 15.462-67.337h.574v-511.99c3.686 0 7.434-.327 11.14-.921l532.94-94.042v388.416c-32.5-23.552-74.627-37.437-121.443-37.437-27.197 0-54.435 4.505-80.936 13.312-60.742 20.254-109.442 60.865-133.567 111.49-18.698 39.137-21.115 81.694-6.882 119.868 24.392 65.207 93.51 107.333 176.248 107.333 27.197 0 54.435-4.444 80.935-13.312 60.66-20.192 109.382-60.803 133.568-111.368 10.424-21.83 15.257-44.666 15.483-67.316h.573V64.019c0-18.882-8.376-36.863-22.876-48.987zM246.04 949.987c-76.676 25.558-155.932.573-176.923-55.684-21.053-56.32 24.022-122.693 100.677-148.252 76.676-25.559 155.932-.635 176.924 55.684 21.093 56.278-24.003 122.693-100.678 148.252zm606.872-95.988c-76.737 25.558-155.993.573-176.985-55.684-21.053-56.319 24.063-122.693 100.678-148.252 76.737-25.558 155.993-.635 176.984 55.684C974.683 762.025 929.63 828.44 852.912 854zM958.75 160.007l-544.06 96.008v-96.008l544.06-96.008v96.008z"/></svg>