<svg class="icon" viewBox="0 0 1024 1024" xmlns="http://www.w3.org/2000/svg" width="32" height="32"><defs><style/></defs><path d="M373.333 197.493L874.667 70.101v660.566h64v-688c0-21.259-25.6-47.851-52.448-41.526L341.675 139.51c-18.731 4.406-32.342 21.6-32.342 41.387v675.275h64V197.504z"/><path d="M229.333 1024c79.531 0 144-64.47 144-144s-64.469-144-144-144-144 64.47-144 144 64.47 144 144 144zm0-64a80 80 0 110-160 80 80 0 010 160zm565.334-85.333c79.53 0 144-64.47 144-144s-64.47-144-144-144-144 64.469-144 144 64.469 144 144 144zm0-64a80 80 0 110-160 80 80 0 010 160zM352.338 322.754l527.84-131.606q10.35-2.58 12.931 7.77l10.322 41.398q2.58 10.35-7.77 12.93l-527.84 131.606q-10.35 2.58-12.93-7.77l-10.322-41.398q-2.58-10.35 7.77-12.93z"/></svg>